<?xml version="1.0" encoding="utf-8"?>
<!-- Generator: Adobe Illustrator 23.0.1, SVG Export Plug-In . SVG Version: 6.00 Build 0)  -->
<svg version="1.1" id="body_1" xmlns="http://www.w3.org/2000/svg" xmlns:xlink="http://www.w3.org/1999/xlink" x="0px" y="0px"
	 viewBox="0 0 820 1160" style="enable-background:new 0 0 820 1160;" xml:space="preserve">
<style type="text/css">
	.st0{clip-path:url(#SVGID_2_);}
	.st1{clip-path:url(#SVGID_4_);}
	.st2{fill:#FFFFFF;}
	.st3{fill:#048BB3;}
	.st4{clip-path:url(#SVGID_6_);}
	.st5{clip-path:url(#SVGID_8_);}
	.st6{clip-path:url(#SVGID_10_);}
	.st7{clip-path:url(#SVGID_14_);}
	.st8{clip-path:url(#SVGID_18_);}
	.st9{clip-path:url(#SVGID_20_);}
	.st10{clip-path:url(#SVGID_22_);}
	.st11{clip-path:url(#SVGID_24_);}
	.st12{clip-path:url(#SVGID_26_);}
	.st13{clip-path:url(#SVGID_30_);}
	.st14{clip-path:url(#SVGID_34_);}
	.st15{clip-path:url(#SVGID_36_);}
	.st16{clip-path:url(#SVGID_38_);}
	.st17{clip-path:url(#SVGID_40_);}
	.st18{clip-path:url(#SVGID_42_);}
	.st19{clip-path:url(#SVGID_46_);}
	.st20{clip-path:url(#SVGID_50_);}
	.st21{clip-path:url(#SVGID_52_);}
</style>
<g>
	<g>
		<defs>
			<polygon id="SVGID_1_" points="0,1160 0,0 0,0 820,0 820,0 820,1160 820,1160 			"/>
		</defs>
		<clipPath id="SVGID_2_">
			<use xlink:href="#SVGID_1_"  style="overflow:visible;"/>
		</clipPath>
		<g class="st0">
			<g>
				<defs>
					<polygon id="SVGID_3_" points="0,0 819.2,0 819.2,0 819.2,1158.9 819.2,1158.9 0,1158.9 0,1158.9 					"/>
				</defs>
				<clipPath id="SVGID_4_">
					<use xlink:href="#SVGID_3_"  style="overflow:visible;"/>
				</clipPath>
				<g class="st1">
					<path class="st2" d="M0,0h819.2v1158.9H0V0z"/>
					<path class="st2" d="M0,0h819.2v4635.5H0V0z"/>
					<path class="st2" d="M0,0h819.2v257.7H0V0z"/>
					<g transform="matrix(0.3400612 0 0 0.3021243 367.1414 155.8478)">
						<g transform="matrix(1 0 0 1 0 0)">
						</g>
					</g>
					<path class="st3" d="M30,30h759.3v99.9H30V30z"/>
					<path class="st3" d="M30,129.9h759.3v57.9H30V129.9z"/>
					<path class="st2" d="M99.9,137.9h2v19h-2V137.9z"/>
					<path class="st2" d="M150.9,137.9h2v19h-2V137.9z"/>
					<path class="st2" d="M224.8,137.9h2v19h-2V137.9z"/>
					<path class="st2" d="M350.7,137.9h2v19h-2V137.9z"/>
					<g transform="matrix(0.7492682 0 0 0.7492682 22.47805 170.8333)">
						<g transform="matrix(1 0 0 1 0 0)">
							
								<image style="overflow:visible;enable-background:new    ;" width="74" height="47" xlink:href="img_02.png"  transform="matrix(1.3333 0 0 1.3333 10 76)">
							</image>
						</g>
					</g>
					<path class="st3" d="M30,262.7h759.3v1H30V262.7z"/>
				</g>
			</g>
		</g>
	</g>
	<g>
		<defs>
			<polygon id="SVGID_5_" points="0,1160 0,0 0,0 820,0 820,0 820,1160 820,1160 			"/>
		</defs>
		<clipPath id="SVGID_6_">
			<use xlink:href="#SVGID_5_"  style="overflow:visible;"/>
		</clipPath>
		<g class="st4">
			<g>
				<defs>
					<polygon id="SVGID_7_" points="0,0 819.2,0 819.2,0 819.2,1158.9 819.2,1158.9 0,1158.9 0,1158.9 					"/>
				</defs>
				<clipPath id="SVGID_8_">
					<use xlink:href="#SVGID_7_"  style="overflow:visible;"/>
				</clipPath>
				<g class="st5">
					<g>
						<g>
							<defs>
								<polygon id="SVGID_9_" points="69.9,227.8 163.8,227.8 163.8,227.8 163.8,263.7 163.8,263.7 69.9,263.7 69.9,263.7 								
									"/>
							</defs>
							<clipPath id="SVGID_10_">
								<use xlink:href="#SVGID_9_"  style="overflow:visible;"/>
							</clipPath>
							<g class="st6">
								<path class="st3" d="M69.9,227.8h93.9v36H69.9V227.8z"/>
							</g>
						</g>
					</g>
				</g>
			</g>
		</g>
	</g>
	<g>
		<defs>
			<polygon id="SVGID_11_" points="0,1160 0,0 0,0 820,0 820,0 820,1160 820,1160 			"/>
		</defs>
		<clipPath id="SVGID_12_">
			<use xlink:href="#SVGID_11_"  style="overflow:visible;"/>
		</clipPath>
	</g>
	<g>
		<defs>
			<polygon id="SVGID_13_" points="0,1160 0,0 0,0 820,0 820,0 820,1160 820,1160 			"/>
		</defs>
		<clipPath id="SVGID_14_">
			<use xlink:href="#SVGID_13_"  style="overflow:visible;"/>
		</clipPath>
		<g class="st7">
			<g>
				<defs>
					<polygon id="SVGID_15_" points="0,0 819.2,0 819.2,0 819.2,1158.9 819.2,1158.9 0,1158.9 0,1158.9 					"/>
				</defs>
				<clipPath id="SVGID_16_">
					<use xlink:href="#SVGID_15_"  style="overflow:visible;"/>
				</clipPath>
			</g>
		</g>
	</g>
	<g>
		<defs>
			<polygon id="SVGID_17_" points="0,1160 0,0 0,0 820,0 820,0 820,1160 820,1160 			"/>
		</defs>
		<clipPath id="SVGID_18_">
			<use xlink:href="#SVGID_17_"  style="overflow:visible;"/>
		</clipPath>
		<g class="st8">
			<g>
				<defs>
					<polygon id="SVGID_19_" points="0,0 819.2,0 819.2,0 819.2,1158.9 819.2,1158.9 0,1158.9 0,1158.9 					"/>
				</defs>
				<clipPath id="SVGID_20_">
					<use xlink:href="#SVGID_19_"  style="overflow:visible;"/>
				</clipPath>
				<g class="st9">
					<path class="st3" d="M46,228.8h1v149.9h-1V228.8z"/>
					<g transform="matrix(0.7492682 0 0 0.7492682 22.47805 283.2235)">
						<g transform="matrix(1 0 0 1 0 0)">
							
								<image style="overflow:visible;enable-background:new    ;" width="74" height="47" xlink:href="img_02.png"  transform="matrix(1.3333 0 0 1.3333 10 126)">
							</image>
						</g>
					</g>
					<path class="st3" d="M30,412.6h759.3v1H30V412.6z"/>
				</g>
			</g>
		</g>
	</g>
	<g>
		<defs>
			<polygon id="SVGID_21_" points="0,1160 0,0 0,0 820,0 820,0 820,1160 820,1160 			"/>
		</defs>
		<clipPath id="SVGID_22_">
			<use xlink:href="#SVGID_21_"  style="overflow:visible;"/>
		</clipPath>
		<g class="st10">
			<g>
				<defs>
					<polygon id="SVGID_23_" points="0,0 819.2,0 819.2,0 819.2,1158.9 819.2,1158.9 0,1158.9 0,1158.9 					"/>
				</defs>
				<clipPath id="SVGID_24_">
					<use xlink:href="#SVGID_23_"  style="overflow:visible;"/>
				</clipPath>
				<g class="st11">
					<g>
						<g>
							<defs>
								<polygon id="SVGID_25_" points="69.9,377.6 163.8,377.6 163.8,377.6 163.8,413.6 163.8,413.6 69.9,413.6 69.9,413.6 
																	"/>
							</defs>
							<clipPath id="SVGID_26_">
								<use xlink:href="#SVGID_25_"  style="overflow:visible;"/>
							</clipPath>
							<g class="st12">
								<path class="st3" d="M69.9,377.6h93.9v36H69.9V377.6z"/>
							</g>
						</g>
					</g>
				</g>
			</g>
		</g>
	</g>
	<g>
		<defs>
			<polygon id="SVGID_27_" points="0,1160 0,0 0,0 820,0 820,0 820,1160 820,1160 			"/>
		</defs>
		<clipPath id="SVGID_28_">
			<use xlink:href="#SVGID_27_"  style="overflow:visible;"/>
		</clipPath>
	</g>
	<g>
		<defs>
			<polygon id="SVGID_29_" points="0,1160 0,0 0,0 820,0 820,0 820,1160 820,1160 			"/>
		</defs>
		<clipPath id="SVGID_30_">
			<use xlink:href="#SVGID_29_"  style="overflow:visible;"/>
		</clipPath>
		<g class="st13">
			<g>
				<defs>
					<polygon id="SVGID_31_" points="0,0 819.2,0 819.2,0 819.2,1158.9 819.2,1158.9 0,1158.9 0,1158.9 					"/>
				</defs>
				<clipPath id="SVGID_32_">
					<use xlink:href="#SVGID_31_"  style="overflow:visible;"/>
				</clipPath>
			</g>
		</g>
	</g>
	<g>
		<defs>
			<polygon id="SVGID_33_" points="0,1160 0,0 0,0 820,0 820,0 820,1160 820,1160 			"/>
		</defs>
		<clipPath id="SVGID_34_">
			<use xlink:href="#SVGID_33_"  style="overflow:visible;"/>
		</clipPath>
		<g class="st14">
			<g>
				<defs>
					<polygon id="SVGID_35_" points="0,0 819.2,0 819.2,0 819.2,1158.9 819.2,1158.9 0,1158.9 0,1158.9 					"/>
				</defs>
				<clipPath id="SVGID_36_">
					<use xlink:href="#SVGID_35_"  style="overflow:visible;"/>
				</clipPath>
				<g class="st15">
					<path class="st3" d="M46,378.6h1v365.6h-1V378.6z"/>
					<g transform="matrix(0.7492682 0 0 0.7492682 22.47805 557.4556)">
						<g transform="matrix(1 0 0 1 0 0)">
							
								<image style="overflow:visible;enable-background:new    ;" width="74" height="47" xlink:href="img_02.png"  transform="matrix(1.3333 0 0 1.3333 10 248)">
							</image>
						</g>
					</g>
					<path class="st3" d="M30,778.2h759.3v1H30V778.2z"/>
				</g>
			</g>
		</g>
	</g>
	<g>
		<defs>
			<polygon id="SVGID_37_" points="0,1160 0,0 0,0 820,0 820,0 820,1160 820,1160 			"/>
		</defs>
		<clipPath id="SVGID_38_">
			<use xlink:href="#SVGID_37_"  style="overflow:visible;"/>
		</clipPath>
		<g class="st16">
			<g>
				<defs>
					<polygon id="SVGID_39_" points="0,0 819.2,0 819.2,0 819.2,1158.9 819.2,1158.9 0,1158.9 0,1158.9 					"/>
				</defs>
				<clipPath id="SVGID_40_">
					<use xlink:href="#SVGID_39_"  style="overflow:visible;"/>
				</clipPath>
				<g class="st17">
					<g>
						<g>
							<defs>
								<polygon id="SVGID_41_" points="69.9,743.3 165,743.3 165,743.3 165,779.2 165,779.2 69.9,779.2 69.9,779.2 								"/>
							</defs>
							<clipPath id="SVGID_42_">
								<use xlink:href="#SVGID_41_"  style="overflow:visible;"/>
							</clipPath>
							<g class="st18">
								<path class="st3" d="M69.9,743.3H165v36H69.9V743.3z"/>
							</g>
						</g>
					</g>
				</g>
			</g>
		</g>
	</g>
	<g>
		<defs>
			<polygon id="SVGID_43_" points="0,1160 0,0 0,0 820,0 820,0 820,1160 820,1160 			"/>
		</defs>
		<clipPath id="SVGID_44_">
			<use xlink:href="#SVGID_43_"  style="overflow:visible;"/>
		</clipPath>
	</g>
	<g>
		<defs>
			<polygon id="SVGID_45_" points="0,1160 0,0 0,0 820,0 820,0 820,1160 820,1160 			"/>
		</defs>
		<clipPath id="SVGID_46_">
			<use xlink:href="#SVGID_45_"  style="overflow:visible;"/>
		</clipPath>
		<g class="st19">
			<g>
				<defs>
					<polygon id="SVGID_47_" points="0,0 819.2,0 819.2,0 819.2,1158.9 819.2,1158.9 0,1158.9 0,1158.9 					"/>
				</defs>
				<clipPath id="SVGID_48_">
					<use xlink:href="#SVGID_47_"  style="overflow:visible;"/>
				</clipPath>
			</g>
		</g>
	</g>
	<g>
		<defs>
			<polygon id="SVGID_49_" points="0,1160 0,0 0,0 820,0 820,0 820,1160 820,1160 			"/>
		</defs>
		<clipPath id="SVGID_50_">
			<use xlink:href="#SVGID_49_"  style="overflow:visible;"/>
		</clipPath>
		<g class="st20">
			<g>
				<defs>
					<polygon id="SVGID_51_" points="0,0 819.2,0 819.2,0 819.2,1158.9 819.2,1158.9 0,1158.9 0,1158.9 					"/>
				</defs>
				<clipPath id="SVGID_52_">
					<use xlink:href="#SVGID_51_"  style="overflow:visible;"/>
				</clipPath>
				<g class="st21">
					<path class="st3" d="M46,744.3h1v482.5h-1V744.3z"/>
				</g>
			</g>
		</g>
	</g>
</g>
</svg>
