<svg xmlns="http://www.w3.org/2000/svg" xmlns:xlink="http://www.w3.org/1999/xlink" id="body_4" preserveAspectRatio="xMinYMin meet" viewBox="0 0 820 1160"><defs><clipPath id="1"><path id="" clip-rule="evenodd" transform="matrix(1 0 0 1 0 0)" d="M0 870L0 0L0 0L615 0L615 0L615 870L615 870L0 870z" /></clipPath><clipPath id="2"><path id="" clip-rule="evenodd" transform="matrix(1 0 0 1 0 0)" d="M0 0L614.4 0L614.4 0L614.4 869.1512L614.4 869.1512L0 869.1512L0 869.1512L0 0z" /></clipPath><clipPath id="3"><path id="" clip-rule="evenodd" transform="matrix(1 0 0 1 0 0)" d="M0 0L614.4 0L614.4 0L614.4 869.1512L614.4 869.1512L0 869.1512L0 869.1512L0 0z" /></clipPath><clipPath id="4"><path id="" clip-rule="evenodd" transform="matrix(1 0 0 1 0 0)" d="M52.44878 448.8117L122.88 448.8117L122.88 448.8117L122.88 475.7853L122.88 475.7853L52.44878 475.7853L52.44878 475.7853L52.44878 448.8117z" /></clipPath><clipPath id="5"><path id="" clip-rule="evenodd" transform="matrix(1 0 0 1 0 0)" d="M0 0L614.4 0L614.4 0L614.4 869.1512L614.4 869.1512L0 869.1512L0 869.1512L0 0z" /></clipPath><clipPath id="6"><path id="" clip-rule="evenodd" transform="matrix(1 0 0 1 0 0)" d="M0 0L614.4 0L614.4 0L614.4 869.1512L614.4 869.1512L0 869.1512L0 869.1512L0 0z" /></clipPath><clipPath id="7"><path id="" clip-rule="evenodd" transform="matrix(1 0 0 1 0 0)" d="M52.44878 448.8117L122.88 448.8117L122.88 448.8117L122.88 475.7853L122.88 475.7853L52.44878 475.7853L52.44878 475.7853L52.44878 448.8117z" /></clipPath><clipPath id="8"><path id="" clip-rule="evenodd" transform="matrix(1 0 0 1 0 0)" d="M0 0L614.4 0L614.4 0L614.4 869.1512L614.4 869.1512L0 869.1512L0 869.1512L0 0z" /></clipPath><clipPath id="9"><path id="" clip-rule="evenodd" transform="matrix(1 0 0 1 0 0)" d="M0 0L614.4 0L614.4 0L614.4 869.1512L614.4 869.1512L0 869.1512L0 869.1512L0 0z" /></clipPath><clipPath id="10"><path id="" clip-rule="evenodd" transform="matrix(1 0 0 1 0 0)" d="M52.44878 554.4585L122.88 554.4585L122.88 554.4585L122.88 581.4321L122.88 581.4321L52.44878 581.4321L52.44878 581.4321L52.44878 554.4585z" /></clipPath><clipPath id="11"><path id="" clip-rule="evenodd" transform="matrix(1 0 0 1 0 0)" d="M0 0L614.4 0L614.4 0L614.4 869.1512L614.4 869.1512L0 869.1512L0 869.1512L0 0z" /></clipPath><clipPath id="12"><path id="" clip-rule="evenodd" transform="matrix(1 0 0 1 0 0)" d="M0 0L614.4 0L614.4 0L614.4 869.1512L614.4 869.1512L0 869.1512L0 869.1512L0 0z" /></clipPath><clipPath id="13"><path id="" clip-rule="evenodd" transform="matrix(1 0 0 1 0 0)" d="M52.44878 554.4585L122.88 554.4585L122.88 554.4585L122.88 581.4321L122.88 581.4321L52.44878 581.4321L52.44878 581.4321L52.44878 554.4585z" /></clipPath><clipPath id="14"><path id="" clip-rule="evenodd" transform="matrix(1 0 0 1 0 0)" d="M0 0L614.4 0L614.4 0L614.4 869.1512L614.4 869.1512L0 869.1512L0 869.1512L0 0z" /></clipPath></defs><g transform="matrix(1.333333 0 0 1.333333 0 0)"><g clip-path="url(#1)"><g clip-path="url(#2)"><path id="1" transform="matrix(1 0 0 -1 0 870)" d="M0 3477.453L614.4 3477.453L614.4 0.8483887L0 0.8483887z" stroke="none" fill="#FFFFFF" fill-rule="nonzero" /><path id="2" transform="matrix(1 0 0 -1 0 870)" d="M34.46634 2557.352L35.21561 2557.352L35.21561 420.4387L34.46634 420.4387z" stroke="none" fill="#048BB3" fill-rule="nonzero" /><g transform="matrix(0.7492682 0 0 0.7492682 22.47805 448.8117)"><g transform="matrix(1 0 0 1 0 0)"><image x="0" y="0" xlink:href="img_02.png" width="74" height="47" /></g></g><path id="602" transform="matrix(1 0 0 -1 0 870)" d="M22.47805 394.9636L591.9219 394.9636L591.9219 394.2144L22.47805 394.2144z" stroke="none" fill="#048BB3" fill-rule="nonzero" /></g><g clip-path="url(#3)"><g clip-path="url(#4)"><path id="603" transform="matrix(1 0 0 -1 0 870)" d="M52.44878 421.188L122.88 421.188L122.88 394.2144L52.44878 394.2144z" stroke="none" fill="#048BB3" fill-rule="nonzero" /></g></g><g clip-path="url(#5)"></g><g clip-path="url(#6)"><g clip-path="url(#7)"></g></g><g clip-path="url(#8)"><path id="608" transform="matrix(1 0 0 -1 0 870)" d="M34.46634 420.4387L35.21561 420.4387L35.21561 314.792L34.46634 314.792z" stroke="none" fill="#048BB3" fill-rule="nonzero" /><g transform="matrix(0.7492682 0 0 0.7492682 22.47805 554.4586)"><g transform="matrix(1 0 0 1 0 0)"><image x="0" y="0" xlink:href="img_02.png" width="74" height="47" /></g></g><path id="658" transform="matrix(1 0 0 -1 0 870)" d="M22.47805 289.3169L591.9219 289.3169L591.9219 288.5676L22.47805 288.5676z" stroke="none" fill="#048BB3" fill-rule="nonzero" /></g><g clip-path="url(#9)"><g clip-path="url(#10)"><path id="659" transform="matrix(1 0 0 -1 0 870)" d="M52.44878 315.5413L122.88 315.5413L122.88 288.5676L52.44878 288.5676z" stroke="none" fill="#048BB3" fill-rule="nonzero" /></g></g><g clip-path="url(#11)"></g><g clip-path="url(#12)"><g clip-path="url(#13)"></g></g><g clip-path="url(#14)"><path id="664" transform="matrix(1 0 0 -1 0 870)" d="M34.46634 314.792L35.21561 314.792L35.21561 126.7256L34.46634 126.7256z" stroke="none" fill="#048BB3" fill-rule="nonzero" /></g></g></g></svg>