<svg xmlns="http://www.w3.org/2000/svg" xmlns:xlink="http://www.w3.org/1999/xlink" id="body_2" preserveAspectRatio="xMinYMin meet" viewBox="0 0 820 1160"><defs><clipPath id="1"><path id="" clip-rule="evenodd" transform="matrix(1 0 0 1 0 0)" d="M0 870L0 0L0 0L615 0L615 0L615 870L615 870L0 870z" /></clipPath><clipPath id="2"><path id="" clip-rule="evenodd" transform="matrix(1 0 0 1 0 0)" d="M0 0L614.4 0L614.4 0L614.4 869.1512L614.4 869.1512L0 869.1512L0 869.1512L0 0z" /></clipPath><clipPath id="3"><path id="" clip-rule="evenodd" transform="matrix(1 0 0 1 0 0)" d="M0 0L614.4 0L614.4 0L614.4 869.1512L614.4 869.1512L0 869.1512L0 869.1512L0 0z" /></clipPath><clipPath id="4"><path id="" clip-rule="evenodd" transform="matrix(1 0 0 1 0 0)" d="M52.44878 50.20099L122.88 50.20099L122.88 50.20099L122.88 77.17462L122.88 77.17462L52.44878 77.17462L52.44878 77.17462L52.44878 50.20099z" /></clipPath><clipPath id="5"><path id="" clip-rule="evenodd" transform="matrix(1 0 0 1 0 0)" d="M0 0L614.4 0L614.4 0L614.4 869.1512L614.4 869.1512L0 869.1512L0 869.1512L0 0z" /></clipPath><clipPath id="6"><path id="" clip-rule="evenodd" transform="matrix(1 0 0 1 0 0)" d="M0 0L614.4 0L614.4 0L614.4 869.1512L614.4 869.1512L0 869.1512L0 869.1512L0 0z" /></clipPath><clipPath id="7"><path id="" clip-rule="evenodd" transform="matrix(1 0 0 1 0 0)" d="M52.44878 50.20099L122.88 50.20099L122.88 50.20099L122.88 77.17462L122.88 77.17462L52.44878 77.17462L52.44878 77.17462L52.44878 50.20099z" /></clipPath><clipPath id="8"><path id="" clip-rule="evenodd" transform="matrix(1 0 0 1 0 0)" d="M0 0L614.4 0L614.4 0L614.4 869.1512L614.4 869.1512L0 869.1512L0 869.1512L0 0z" /></clipPath></defs><g transform="matrix(1.333333 0 0 1.333333 0 0)"><g clip-path="url(#1)"><g clip-path="url(#2)"><path id="1" transform="matrix(1 0 0 -1 0 870)" d="M0 1739.151L614.4 1739.151L614.4 -1737.454L0 -1737.454z" stroke="none" fill="#FFFFFF" fill-rule="nonzero" /><path id="2" transform="matrix(1 0 0 -1 0 870)" d="M34.46634 1180.946L35.21561 1180.946L35.21561 819.0497L34.46634 819.0497z" stroke="none" fill="#048BB3" fill-rule="nonzero" /><g transform="matrix(0.7492682 0 0 0.7492682 22.47805 50.20105)"><g transform="matrix(1 0 0 1 0 0)"><image x="0" y="0" xlink:href="img_02.png" width="74" height="47" /></g></g><path id="49" transform="matrix(1 0 0 -1 0 870)" d="M22.47805 793.5745L591.9219 793.5745L591.9219 792.8253L22.47805 792.8253z" stroke="none" fill="#048BB3" fill-rule="nonzero" /></g><g clip-path="url(#3)"><g clip-path="url(#4)"><path id="50" transform="matrix(1 0 0 -1 0 870)" d="M52.44878 819.799L122.88 819.799L122.88 792.8253L52.44878 792.8253z" stroke="none" fill="#048BB3" fill-rule="nonzero" /></g></g><g clip-path="url(#5)"></g><g clip-path="url(#6)"><g clip-path="url(#7)"></g></g><g clip-path="url(#8)"><path id="55" transform="matrix(1 0 0 -1 0 870)" d="M34.46634 819.0497L35.21561 819.0497L35.21561 -1317.864L34.46634 -1317.864z" stroke="none" fill="#048BB3" fill-rule="nonzero" /></g></g></g></svg>